<mxfile host="app.diagrams.net" modified="2024-04-08T12:27:26.902Z" agent="Mozilla/5.0 (Windows NT 10.0; Win64; x64) AppleWebKit/537.36 (KHTML, like Gecko) Chrome/121.0.0.0 Safari/537.36 OPR/107.0.0.0" etag="EHB-bElUUB31afnZNtEd" version="23.1.6" type="github">
  <diagram id="C5RBs43oDa-KdzZeNtuy" name="Page-1">
    <mxGraphModel dx="2196" dy="785" grid="1" gridSize="10" guides="1" tooltips="1" connect="1" arrows="1" fold="1" page="1" pageScale="1" pageWidth="827" pageHeight="1169" math="0" shadow="0">
      <root>
        <mxCell id="WIyWlLk6GJQsqaUBKTNV-0" />
        <mxCell id="WIyWlLk6GJQsqaUBKTNV-1" parent="WIyWlLk6GJQsqaUBKTNV-0" />
        <mxCell id="O0np8D0qVa09u7cZetzE-4" value="&amp;lt;&amp;lt;interface&amp;gt;&amp;gt;&lt;br&gt;IKonto" style="swimlane;fontStyle=0;childLayout=stackLayout;horizontal=1;startSize=40;fillColor=none;horizontalStack=0;resizeParent=1;resizeParentMax=0;resizeLast=0;collapsible=1;marginBottom=0;whiteSpace=wrap;html=1;" parent="WIyWlLk6GJQsqaUBKTNV-1" vertex="1">
          <mxGeometry x="1360" y="80" width="230" height="144" as="geometry" />
        </mxCell>
        <mxCell id="O0np8D0qVa09u7cZetzE-5" value="+ getKontostand() : double" style="text;strokeColor=none;fillColor=none;align=left;verticalAlign=top;spacingLeft=4;spacingRight=4;overflow=hidden;rotatable=0;points=[[0,0.5],[1,0.5]];portConstraint=eastwest;whiteSpace=wrap;html=1;" parent="O0np8D0qVa09u7cZetzE-4" vertex="1">
          <mxGeometry y="40" width="230" height="26" as="geometry" />
        </mxCell>
        <mxCell id="O0np8D0qVa09u7cZetzE-6" value="+ getIban(): string" style="text;strokeColor=none;fillColor=none;align=left;verticalAlign=top;spacingLeft=4;spacingRight=4;overflow=hidden;rotatable=0;points=[[0,0.5],[1,0.5]];portConstraint=eastwest;whiteSpace=wrap;html=1;" parent="O0np8D0qVa09u7cZetzE-4" vertex="1">
          <mxGeometry y="66" width="230" height="26" as="geometry" />
        </mxCell>
        <mxCell id="O0np8D0qVa09u7cZetzE-7" value="+ einzahlen(betrag : double) : void" style="text;strokeColor=none;fillColor=none;align=left;verticalAlign=top;spacingLeft=4;spacingRight=4;overflow=hidden;rotatable=0;points=[[0,0.5],[1,0.5]];portConstraint=eastwest;whiteSpace=wrap;html=1;" parent="O0np8D0qVa09u7cZetzE-4" vertex="1">
          <mxGeometry y="92" width="230" height="26" as="geometry" />
        </mxCell>
        <mxCell id="O0np8D0qVa09u7cZetzE-21" value="+ auszahlen(betrag : double) : boolean" style="text;strokeColor=none;fillColor=none;align=left;verticalAlign=top;spacingLeft=4;spacingRight=4;overflow=hidden;rotatable=0;points=[[0,0.5],[1,0.5]];portConstraint=eastwest;whiteSpace=wrap;html=1;" parent="O0np8D0qVa09u7cZetzE-4" vertex="1">
          <mxGeometry y="118" width="230" height="26" as="geometry" />
        </mxCell>
        <mxCell id="O0np8D0qVa09u7cZetzE-9" value="&amp;lt;&amp;lt;interface&amp;gt;&amp;gt;&lt;br&gt;IFiliale" style="swimlane;fontStyle=0;childLayout=stackLayout;horizontal=1;startSize=40;fillColor=none;horizontalStack=0;resizeParent=1;resizeParentMax=0;resizeLast=0;collapsible=1;marginBottom=0;whiteSpace=wrap;html=1;" parent="WIyWlLk6GJQsqaUBKTNV-1" vertex="1">
          <mxGeometry x="1060" y="680" width="420" height="144" as="geometry" />
        </mxCell>
        <mxCell id="O0np8D0qVa09u7cZetzE-10" value="+ SendTransfer(Reciever : Kunde, IBAN : string, amount : double) : boolean" style="text;strokeColor=none;fillColor=none;align=left;verticalAlign=top;spacingLeft=4;spacingRight=4;overflow=hidden;rotatable=0;points=[[0,0.5],[1,0.5]];portConstraint=eastwest;whiteSpace=wrap;html=1;" parent="O0np8D0qVa09u7cZetzE-9" vertex="1">
          <mxGeometry y="40" width="420" height="26" as="geometry" />
        </mxCell>
        <mxCell id="O0np8D0qVa09u7cZetzE-11" value="+ GetTransfer(Reciever : Kunde, IBAN : string, amount : double) : boolean" style="text;strokeColor=none;fillColor=none;align=left;verticalAlign=top;spacingLeft=4;spacingRight=4;overflow=hidden;rotatable=0;points=[[0,0.5],[1,0.5]];portConstraint=eastwest;whiteSpace=wrap;html=1;" parent="O0np8D0qVa09u7cZetzE-9" vertex="1">
          <mxGeometry y="66" width="420" height="26" as="geometry" />
        </mxCell>
        <mxCell id="O0np8D0qVa09u7cZetzE-12" value="+ PaySalary(amount : double) : void" style="text;strokeColor=none;fillColor=none;align=left;verticalAlign=top;spacingLeft=4;spacingRight=4;overflow=hidden;rotatable=0;points=[[0,0.5],[1,0.5]];portConstraint=eastwest;whiteSpace=wrap;html=1;" parent="O0np8D0qVa09u7cZetzE-9" vertex="1">
          <mxGeometry y="92" width="420" height="26" as="geometry" />
        </mxCell>
        <mxCell id="O0np8D0qVa09u7cZetzE-25" value="+ getAccManagementFee(amount : double) : void" style="text;strokeColor=none;fillColor=none;align=left;verticalAlign=top;spacingLeft=4;spacingRight=4;overflow=hidden;rotatable=0;points=[[0,0.5],[1,0.5]];portConstraint=eastwest;whiteSpace=wrap;html=1;" parent="O0np8D0qVa09u7cZetzE-9" vertex="1">
          <mxGeometry y="118" width="420" height="26" as="geometry" />
        </mxCell>
        <mxCell id="O0np8D0qVa09u7cZetzE-17" value="&amp;lt;&amp;lt;interface&amp;gt;&amp;gt;&lt;br&gt;IKunde" style="swimlane;fontStyle=0;childLayout=stackLayout;horizontal=1;startSize=40;fillColor=none;horizontalStack=0;resizeParent=1;resizeParentMax=0;resizeLast=0;collapsible=1;marginBottom=0;whiteSpace=wrap;html=1;" parent="WIyWlLk6GJQsqaUBKTNV-1" vertex="1">
          <mxGeometry x="920" y="80" width="390" height="196" as="geometry" />
        </mxCell>
        <mxCell id="O0np8D0qVa09u7cZetzE-18" value="+ OpenAccount() : Konto" style="text;strokeColor=none;fillColor=none;align=left;verticalAlign=top;spacingLeft=4;spacingRight=4;overflow=hidden;rotatable=0;points=[[0,0.5],[1,0.5]];portConstraint=eastwest;whiteSpace=wrap;html=1;" parent="O0np8D0qVa09u7cZetzE-17" vertex="1">
          <mxGeometry y="40" width="390" height="26" as="geometry" />
        </mxCell>
        <mxCell id="O0np8D0qVa09u7cZetzE-19" value="+ CloseAccount() : boolean" style="text;strokeColor=none;fillColor=none;align=left;verticalAlign=top;spacingLeft=4;spacingRight=4;overflow=hidden;rotatable=0;points=[[0,0.5],[1,0.5]];portConstraint=eastwest;whiteSpace=wrap;html=1;" parent="O0np8D0qVa09u7cZetzE-17" vertex="1">
          <mxGeometry y="66" width="390" height="26" as="geometry" />
        </mxCell>
        <mxCell id="O0np8D0qVa09u7cZetzE-20" value="+ getBalance(IBAN : string) : double" style="text;strokeColor=none;fillColor=none;align=left;verticalAlign=top;spacingLeft=4;spacingRight=4;overflow=hidden;rotatable=0;points=[[0,0.5],[1,0.5]];portConstraint=eastwest;whiteSpace=wrap;html=1;" parent="O0np8D0qVa09u7cZetzE-17" vertex="1">
          <mxGeometry y="92" width="390" height="26" as="geometry" />
        </mxCell>
        <mxCell id="O0np8D0qVa09u7cZetzE-22" value="+ Deposit(amount : double) : boolean" style="text;strokeColor=none;fillColor=none;align=left;verticalAlign=top;spacingLeft=4;spacingRight=4;overflow=hidden;rotatable=0;points=[[0,0.5],[1,0.5]];portConstraint=eastwest;whiteSpace=wrap;html=1;" parent="O0np8D0qVa09u7cZetzE-17" vertex="1">
          <mxGeometry y="118" width="390" height="26" as="geometry" />
        </mxCell>
        <mxCell id="O0np8D0qVa09u7cZetzE-23" value="+ Withdraw(amount : double) : boolean" style="text;strokeColor=none;fillColor=none;align=left;verticalAlign=top;spacingLeft=4;spacingRight=4;overflow=hidden;rotatable=0;points=[[0,0.5],[1,0.5]];portConstraint=eastwest;whiteSpace=wrap;html=1;" parent="O0np8D0qVa09u7cZetzE-17" vertex="1">
          <mxGeometry y="144" width="390" height="26" as="geometry" />
        </mxCell>
        <mxCell id="O0np8D0qVa09u7cZetzE-24" value="+ Transfer(Reciever : Kunde, IBAN : string, amount : double) : boolean" style="text;strokeColor=none;fillColor=none;align=left;verticalAlign=top;spacingLeft=4;spacingRight=4;overflow=hidden;rotatable=0;points=[[0,0.5],[1,0.5]];portConstraint=eastwest;whiteSpace=wrap;html=1;" parent="O0np8D0qVa09u7cZetzE-17" vertex="1">
          <mxGeometry y="170" width="390" height="26" as="geometry" />
        </mxCell>
        <mxCell id="O0np8D0qVa09u7cZetzE-34" value="Konto" style="swimlane;fontStyle=0;childLayout=stackLayout;horizontal=1;startSize=26;fillColor=none;horizontalStack=0;resizeParent=1;resizeParentMax=0;resizeLast=0;collapsible=1;marginBottom=0;whiteSpace=wrap;html=1;" parent="WIyWlLk6GJQsqaUBKTNV-1" vertex="1">
          <mxGeometry x="1360" y="370" width="140" height="104" as="geometry" />
        </mxCell>
        <mxCell id="O0np8D0qVa09u7cZetzE-35" value="+ Owner : Kunde" style="text;strokeColor=none;fillColor=none;align=left;verticalAlign=top;spacingLeft=4;spacingRight=4;overflow=hidden;rotatable=0;points=[[0,0.5],[1,0.5]];portConstraint=eastwest;whiteSpace=wrap;html=1;" parent="O0np8D0qVa09u7cZetzE-34" vertex="1">
          <mxGeometry y="26" width="140" height="26" as="geometry" />
        </mxCell>
        <mxCell id="O0np8D0qVa09u7cZetzE-36" value="- Kontostand : double" style="text;strokeColor=none;fillColor=none;align=left;verticalAlign=top;spacingLeft=4;spacingRight=4;overflow=hidden;rotatable=0;points=[[0,0.5],[1,0.5]];portConstraint=eastwest;whiteSpace=wrap;html=1;" parent="O0np8D0qVa09u7cZetzE-34" vertex="1">
          <mxGeometry y="52" width="140" height="26" as="geometry" />
        </mxCell>
        <mxCell id="O0np8D0qVa09u7cZetzE-37" value="- iban : string" style="text;strokeColor=none;fillColor=none;align=left;verticalAlign=top;spacingLeft=4;spacingRight=4;overflow=hidden;rotatable=0;points=[[0,0.5],[1,0.5]];portConstraint=eastwest;whiteSpace=wrap;html=1;" parent="O0np8D0qVa09u7cZetzE-34" vertex="1">
          <mxGeometry y="78" width="140" height="26" as="geometry" />
        </mxCell>
        <mxCell id="O0np8D0qVa09u7cZetzE-38" value="Filliale" style="swimlane;fontStyle=0;childLayout=stackLayout;horizontal=1;startSize=26;fillColor=none;horizontalStack=0;resizeParent=1;resizeParentMax=0;resizeLast=0;collapsible=1;marginBottom=0;whiteSpace=wrap;html=1;" parent="WIyWlLk6GJQsqaUBKTNV-1" vertex="1">
          <mxGeometry x="662" y="680" width="256" height="156" as="geometry" />
        </mxCell>
        <mxCell id="O0np8D0qVa09u7cZetzE-39" value="+ Name : string" style="text;strokeColor=none;fillColor=none;align=left;verticalAlign=top;spacingLeft=4;spacingRight=4;overflow=hidden;rotatable=0;points=[[0,0.5],[1,0.5]];portConstraint=eastwest;whiteSpace=wrap;html=1;" parent="O0np8D0qVa09u7cZetzE-38" vertex="1">
          <mxGeometry y="26" width="256" height="26" as="geometry" />
        </mxCell>
        <mxCell id="O0np8D0qVa09u7cZetzE-40" value="+ Address : string" style="text;strokeColor=none;fillColor=none;align=left;verticalAlign=top;spacingLeft=4;spacingRight=4;overflow=hidden;rotatable=0;points=[[0,0.5],[1,0.5]];portConstraint=eastwest;whiteSpace=wrap;html=1;" parent="O0np8D0qVa09u7cZetzE-38" vertex="1">
          <mxGeometry y="52" width="256" height="26" as="geometry" />
        </mxCell>
        <mxCell id="O0np8D0qVa09u7cZetzE-41" value="+ BIC : string" style="text;strokeColor=none;fillColor=none;align=left;verticalAlign=top;spacingLeft=4;spacingRight=4;overflow=hidden;rotatable=0;points=[[0,0.5],[1,0.5]];portConstraint=eastwest;whiteSpace=wrap;html=1;" parent="O0np8D0qVa09u7cZetzE-38" vertex="1">
          <mxGeometry y="78" width="256" height="26" as="geometry" />
        </mxCell>
        <mxCell id="O0np8D0qVa09u7cZetzE-43" value="+ Employees : List&amp;lt;Mitarbeiter&amp;gt;" style="text;strokeColor=none;fillColor=none;align=left;verticalAlign=top;spacingLeft=4;spacingRight=4;overflow=hidden;rotatable=0;points=[[0,0.5],[1,0.5]];portConstraint=eastwest;whiteSpace=wrap;html=1;" parent="O0np8D0qVa09u7cZetzE-38" vertex="1">
          <mxGeometry y="104" width="256" height="26" as="geometry" />
        </mxCell>
        <mxCell id="O0np8D0qVa09u7cZetzE-44" value="+ Customers : List&amp;lt;Kunde&amp;gt;" style="text;strokeColor=none;fillColor=none;align=left;verticalAlign=top;spacingLeft=4;spacingRight=4;overflow=hidden;rotatable=0;points=[[0,0.5],[1,0.5]];portConstraint=eastwest;whiteSpace=wrap;html=1;" parent="O0np8D0qVa09u7cZetzE-38" vertex="1">
          <mxGeometry y="130" width="256" height="26" as="geometry" />
        </mxCell>
        <mxCell id="O0np8D0qVa09u7cZetzE-46" value="Kunde" style="swimlane;fontStyle=0;childLayout=stackLayout;horizontal=1;startSize=26;fillColor=none;horizontalStack=0;resizeParent=1;resizeParentMax=0;resizeLast=0;collapsible=1;marginBottom=0;whiteSpace=wrap;html=1;" parent="WIyWlLk6GJQsqaUBKTNV-1" vertex="1">
          <mxGeometry x="827" y="370" width="260" height="156" as="geometry" />
        </mxCell>
        <mxCell id="O0np8D0qVa09u7cZetzE-47" value="+ Accounts : List&amp;lt;Konto&amp;gt;" style="text;strokeColor=none;fillColor=none;align=left;verticalAlign=top;spacingLeft=4;spacingRight=4;overflow=hidden;rotatable=0;points=[[0,0.5],[1,0.5]];portConstraint=eastwest;whiteSpace=wrap;html=1;" parent="O0np8D0qVa09u7cZetzE-46" vertex="1">
          <mxGeometry y="26" width="260" height="26" as="geometry" />
        </mxCell>
        <mxCell id="O0np8D0qVa09u7cZetzE-48" value="+ ID : integer" style="text;strokeColor=none;fillColor=none;align=left;verticalAlign=top;spacingLeft=4;spacingRight=4;overflow=hidden;rotatable=0;points=[[0,0.5],[1,0.5]];portConstraint=eastwest;whiteSpace=wrap;html=1;" parent="O0np8D0qVa09u7cZetzE-46" vertex="1">
          <mxGeometry y="52" width="260" height="26" as="geometry" />
        </mxCell>
        <mxCell id="O0np8D0qVa09u7cZetzE-49" value="- maxAccounts : integer" style="text;strokeColor=none;fillColor=none;align=left;verticalAlign=top;spacingLeft=4;spacingRight=4;overflow=hidden;rotatable=0;points=[[0,0.5],[1,0.5]];portConstraint=eastwest;whiteSpace=wrap;html=1;" parent="O0np8D0qVa09u7cZetzE-46" vertex="1">
          <mxGeometry y="78" width="260" height="26" as="geometry" />
        </mxCell>
        <mxCell id="O0np8D0qVa09u7cZetzE-50" value="+ Bank : Filliale" style="text;strokeColor=none;fillColor=none;align=left;verticalAlign=top;spacingLeft=4;spacingRight=4;overflow=hidden;rotatable=0;points=[[0,0.5],[1,0.5]];portConstraint=eastwest;whiteSpace=wrap;html=1;" parent="O0np8D0qVa09u7cZetzE-46" vertex="1">
          <mxGeometry y="104" width="260" height="26" as="geometry" />
        </mxCell>
        <mxCell id="O0np8D0qVa09u7cZetzE-51" value="+ Consultant : Mitarbeiter" style="text;strokeColor=none;fillColor=none;align=left;verticalAlign=top;spacingLeft=4;spacingRight=4;overflow=hidden;rotatable=0;points=[[0,0.5],[1,0.5]];portConstraint=eastwest;whiteSpace=wrap;html=1;" parent="O0np8D0qVa09u7cZetzE-46" vertex="1">
          <mxGeometry y="130" width="260" height="26" as="geometry" />
        </mxCell>
        <mxCell id="O0np8D0qVa09u7cZetzE-54" value="" style="endArrow=block;dashed=1;html=1;rounded=0;exitX=0.5;exitY=0;exitDx=0;exitDy=0;endFill=0;" parent="WIyWlLk6GJQsqaUBKTNV-1" source="O0np8D0qVa09u7cZetzE-34" edge="1">
          <mxGeometry width="50" height="50" relative="1" as="geometry">
            <mxPoint x="1330" y="380" as="sourcePoint" />
            <mxPoint x="1430" y="220" as="targetPoint" />
          </mxGeometry>
        </mxCell>
        <mxCell id="O0np8D0qVa09u7cZetzE-55" value="" style="endArrow=none;html=1;rounded=0;entryX=-0.024;entryY=0.292;entryDx=0;entryDy=0;exitX=1.013;exitY=1.308;exitDx=0;exitDy=0;exitPerimeter=0;startArrow=diamond;startFill=1;entryPerimeter=0;" parent="WIyWlLk6GJQsqaUBKTNV-1" source="O0np8D0qVa09u7cZetzE-47" target="O0np8D0qVa09u7cZetzE-36" edge="1">
          <mxGeometry width="50" height="50" relative="1" as="geometry">
            <mxPoint x="1110" y="604" as="sourcePoint" />
            <mxPoint x="1160" y="554" as="targetPoint" />
          </mxGeometry>
        </mxCell>
        <mxCell id="O0np8D0qVa09u7cZetzE-56" value="1" style="edgeLabel;html=1;align=center;verticalAlign=middle;resizable=0;points=[];" parent="O0np8D0qVa09u7cZetzE-55" vertex="1" connectable="0">
          <mxGeometry x="-0.7897" y="1" relative="1" as="geometry">
            <mxPoint x="-18" y="-7" as="offset" />
          </mxGeometry>
        </mxCell>
        <mxCell id="O0np8D0qVa09u7cZetzE-57" value="1..5" style="edgeLabel;html=1;align=center;verticalAlign=middle;resizable=0;points=[];" parent="O0np8D0qVa09u7cZetzE-55" vertex="1" connectable="0">
          <mxGeometry x="0.6873" relative="1" as="geometry">
            <mxPoint x="25" y="-11" as="offset" />
          </mxGeometry>
        </mxCell>
        <mxCell id="O0np8D0qVa09u7cZetzE-58" value="" style="endArrow=block;dashed=1;html=1;rounded=0;exitX=0.82;exitY=-0.021;exitDx=0;exitDy=0;endFill=0;exitPerimeter=0;" parent="WIyWlLk6GJQsqaUBKTNV-1" source="O0np8D0qVa09u7cZetzE-46" edge="1">
          <mxGeometry width="50" height="50" relative="1" as="geometry">
            <mxPoint x="1040" y="426" as="sourcePoint" />
            <mxPoint x="1040" y="276" as="targetPoint" />
          </mxGeometry>
        </mxCell>
        <mxCell id="O0np8D0qVa09u7cZetzE-62" value="" style="endArrow=classic;html=1;rounded=0;startArrow=diamond;startFill=0;exitX=0.211;exitY=-0.004;exitDx=0;exitDy=0;exitPerimeter=0;" parent="WIyWlLk6GJQsqaUBKTNV-1" source="O0np8D0qVa09u7cZetzE-38" edge="1">
          <mxGeometry width="50" height="50" relative="1" as="geometry">
            <mxPoint x="720" y="670" as="sourcePoint" />
            <mxPoint x="780" y="570" as="targetPoint" />
          </mxGeometry>
        </mxCell>
        <mxCell id="O0np8D0qVa09u7cZetzE-67" value="0..*" style="edgeLabel;html=1;align=center;verticalAlign=middle;resizable=0;points=[];" parent="O0np8D0qVa09u7cZetzE-62" vertex="1" connectable="0">
          <mxGeometry x="0.7907" y="-4" relative="1" as="geometry">
            <mxPoint x="10" y="2" as="offset" />
          </mxGeometry>
        </mxCell>
        <mxCell id="O0np8D0qVa09u7cZetzE-68" value="0..1" style="edgeLabel;html=1;align=center;verticalAlign=middle;resizable=0;points=[];" parent="O0np8D0qVa09u7cZetzE-62" vertex="1" connectable="0">
          <mxGeometry x="-0.7909" y="-1" relative="1" as="geometry">
            <mxPoint x="13" as="offset" />
          </mxGeometry>
        </mxCell>
        <mxCell id="O0np8D0qVa09u7cZetzE-63" value="" style="endArrow=classic;html=1;rounded=0;entryX=0.788;entryY=1.137;entryDx=0;entryDy=0;entryPerimeter=0;startArrow=diamond;startFill=0;exitX=0.85;exitY=-0.004;exitDx=0;exitDy=0;exitPerimeter=0;" parent="WIyWlLk6GJQsqaUBKTNV-1" source="O0np8D0qVa09u7cZetzE-38" edge="1">
          <mxGeometry width="50" height="50" relative="1" as="geometry">
            <mxPoint x="880" y="670" as="sourcePoint" />
            <mxPoint x="880" y="526" as="targetPoint" />
          </mxGeometry>
        </mxCell>
        <mxCell id="O0np8D0qVa09u7cZetzE-69" value="0..*" style="edgeLabel;html=1;align=center;verticalAlign=middle;resizable=0;points=[];" parent="O0np8D0qVa09u7cZetzE-63" vertex="1" connectable="0">
          <mxGeometry x="0.7434" relative="1" as="geometry">
            <mxPoint x="10" as="offset" />
          </mxGeometry>
        </mxCell>
        <mxCell id="O0np8D0qVa09u7cZetzE-70" value="1" style="edgeLabel;html=1;align=center;verticalAlign=middle;resizable=0;points=[];" parent="O0np8D0qVa09u7cZetzE-63" vertex="1" connectable="0">
          <mxGeometry x="-0.7344" y="-1" relative="1" as="geometry">
            <mxPoint x="9" as="offset" />
          </mxGeometry>
        </mxCell>
        <mxCell id="O0np8D0qVa09u7cZetzE-64" value="" style="endArrow=none;html=1;rounded=0;entryX=0;entryY=0.5;entryDx=0;entryDy=0;exitX=1;exitY=0.5;exitDx=0;exitDy=0;" parent="WIyWlLk6GJQsqaUBKTNV-1" target="O0np8D0qVa09u7cZetzE-48" edge="1">
          <mxGeometry width="50" height="50" relative="1" as="geometry">
            <mxPoint x="640" y="415" as="sourcePoint" />
            <mxPoint x="690" y="400" as="targetPoint" />
          </mxGeometry>
        </mxCell>
        <mxCell id="O0np8D0qVa09u7cZetzE-65" value="1" style="edgeLabel;html=1;align=center;verticalAlign=middle;resizable=0;points=[];" parent="O0np8D0qVa09u7cZetzE-64" vertex="1" connectable="0">
          <mxGeometry x="-0.7359" y="2" relative="1" as="geometry">
            <mxPoint y="-13" as="offset" />
          </mxGeometry>
        </mxCell>
        <mxCell id="O0np8D0qVa09u7cZetzE-66" value="0..*" style="edgeLabel;html=1;align=center;verticalAlign=middle;resizable=0;points=[];" parent="O0np8D0qVa09u7cZetzE-64" vertex="1" connectable="0">
          <mxGeometry x="0.5628" relative="1" as="geometry">
            <mxPoint y="-15" as="offset" />
          </mxGeometry>
        </mxCell>
        <mxCell id="O0np8D0qVa09u7cZetzE-72" value="" style="endArrow=block;dashed=1;html=1;rounded=0;exitX=1.008;exitY=-0.005;exitDx=0;exitDy=0;endFill=0;entryX=0;entryY=0.5;entryDx=0;entryDy=0;exitPerimeter=0;" parent="WIyWlLk6GJQsqaUBKTNV-1" source="O0np8D0qVa09u7cZetzE-40" target="O0np8D0qVa09u7cZetzE-10" edge="1">
          <mxGeometry width="50" height="50" relative="1" as="geometry">
            <mxPoint x="972" y="808" as="sourcePoint" />
            <mxPoint x="970" y="610" as="targetPoint" />
          </mxGeometry>
        </mxCell>
        <mxCell id="iTh-7qj9WM5Aq7R-gZvA-0" value="«interface»&lt;br&gt;&lt;b&gt;IKonto&lt;/b&gt;" style="html=1;whiteSpace=wrap;" parent="WIyWlLk6GJQsqaUBKTNV-1" vertex="1">
          <mxGeometry x="808" y="1200" width="110" height="50" as="geometry" />
        </mxCell>
        <mxCell id="iTh-7qj9WM5Aq7R-gZvA-1" value="«interface»&lt;br&gt;&lt;b&gt;IFiliale&lt;/b&gt;" style="html=1;whiteSpace=wrap;" parent="WIyWlLk6GJQsqaUBKTNV-1" vertex="1">
          <mxGeometry x="560" y="1200" width="110" height="50" as="geometry" />
        </mxCell>
        <mxCell id="iTh-7qj9WM5Aq7R-gZvA-2" value="«interface»&lt;br&gt;&lt;b&gt;IMitarbeiter&lt;/b&gt;" style="html=1;whiteSpace=wrap;" parent="WIyWlLk6GJQsqaUBKTNV-1" vertex="1">
          <mxGeometry x="1310" y="1200" width="110" height="50" as="geometry" />
        </mxCell>
        <mxCell id="iTh-7qj9WM5Aq7R-gZvA-3" value="«interface»&lt;br&gt;&lt;b&gt;IKunde&lt;/b&gt;" style="html=1;whiteSpace=wrap;" parent="WIyWlLk6GJQsqaUBKTNV-1" vertex="1">
          <mxGeometry x="1060" y="1200" width="110" height="50" as="geometry" />
        </mxCell>
        <mxCell id="iTh-7qj9WM5Aq7R-gZvA-4" value="Mitarbeiter" style="swimlane;fontStyle=1;align=center;verticalAlign=top;childLayout=stackLayout;horizontal=1;startSize=26;horizontalStack=0;resizeParent=1;resizeParentMax=0;resizeLast=0;collapsible=1;marginBottom=0;whiteSpace=wrap;html=1;" parent="WIyWlLk6GJQsqaUBKTNV-1" vertex="1">
          <mxGeometry x="1286" y="1430" width="160" height="86" as="geometry" />
        </mxCell>
        <mxCell id="iTh-7qj9WM5Aq7R-gZvA-5" value="+ field: type" style="text;strokeColor=none;fillColor=none;align=left;verticalAlign=top;spacingLeft=4;spacingRight=4;overflow=hidden;rotatable=0;points=[[0,0.5],[1,0.5]];portConstraint=eastwest;whiteSpace=wrap;html=1;" parent="iTh-7qj9WM5Aq7R-gZvA-4" vertex="1">
          <mxGeometry y="26" width="160" height="26" as="geometry" />
        </mxCell>
        <mxCell id="iTh-7qj9WM5Aq7R-gZvA-6" value="" style="line;strokeWidth=1;fillColor=none;align=left;verticalAlign=middle;spacingTop=-1;spacingLeft=3;spacingRight=3;rotatable=0;labelPosition=right;points=[];portConstraint=eastwest;strokeColor=inherit;" parent="iTh-7qj9WM5Aq7R-gZvA-4" vertex="1">
          <mxGeometry y="52" width="160" height="8" as="geometry" />
        </mxCell>
        <mxCell id="iTh-7qj9WM5Aq7R-gZvA-7" value="+ method(type): type" style="text;strokeColor=none;fillColor=none;align=left;verticalAlign=top;spacingLeft=4;spacingRight=4;overflow=hidden;rotatable=0;points=[[0,0.5],[1,0.5]];portConstraint=eastwest;whiteSpace=wrap;html=1;" parent="iTh-7qj9WM5Aq7R-gZvA-4" vertex="1">
          <mxGeometry y="60" width="160" height="26" as="geometry" />
        </mxCell>
        <mxCell id="iTh-7qj9WM5Aq7R-gZvA-8" value="Kunde" style="swimlane;fontStyle=1;align=center;verticalAlign=top;childLayout=stackLayout;horizontal=1;startSize=26;horizontalStack=0;resizeParent=1;resizeParentMax=0;resizeLast=0;collapsible=1;marginBottom=0;whiteSpace=wrap;html=1;" parent="WIyWlLk6GJQsqaUBKTNV-1" vertex="1">
          <mxGeometry x="1036" y="1430" width="160" height="86" as="geometry" />
        </mxCell>
        <mxCell id="iTh-7qj9WM5Aq7R-gZvA-9" value="+ field: type" style="text;strokeColor=none;fillColor=none;align=left;verticalAlign=top;spacingLeft=4;spacingRight=4;overflow=hidden;rotatable=0;points=[[0,0.5],[1,0.5]];portConstraint=eastwest;whiteSpace=wrap;html=1;" parent="iTh-7qj9WM5Aq7R-gZvA-8" vertex="1">
          <mxGeometry y="26" width="160" height="26" as="geometry" />
        </mxCell>
        <mxCell id="iTh-7qj9WM5Aq7R-gZvA-10" value="" style="line;strokeWidth=1;fillColor=none;align=left;verticalAlign=middle;spacingTop=-1;spacingLeft=3;spacingRight=3;rotatable=0;labelPosition=right;points=[];portConstraint=eastwest;strokeColor=inherit;" parent="iTh-7qj9WM5Aq7R-gZvA-8" vertex="1">
          <mxGeometry y="52" width="160" height="8" as="geometry" />
        </mxCell>
        <mxCell id="iTh-7qj9WM5Aq7R-gZvA-11" value="+ method(type): type" style="text;strokeColor=none;fillColor=none;align=left;verticalAlign=top;spacingLeft=4;spacingRight=4;overflow=hidden;rotatable=0;points=[[0,0.5],[1,0.5]];portConstraint=eastwest;whiteSpace=wrap;html=1;" parent="iTh-7qj9WM5Aq7R-gZvA-8" vertex="1">
          <mxGeometry y="60" width="160" height="26" as="geometry" />
        </mxCell>
        <mxCell id="iTh-7qj9WM5Aq7R-gZvA-12" value="Konto" style="swimlane;fontStyle=1;align=center;verticalAlign=top;childLayout=stackLayout;horizontal=1;startSize=26;horizontalStack=0;resizeParent=1;resizeParentMax=0;resizeLast=0;collapsible=1;marginBottom=0;whiteSpace=wrap;html=1;" parent="WIyWlLk6GJQsqaUBKTNV-1" vertex="1">
          <mxGeometry x="414" y="1344" width="606" height="318" as="geometry" />
        </mxCell>
        <mxCell id="iTh-7qj9WM5Aq7R-gZvA-13" value="+&amp;nbsp;" style="text;strokeColor=none;fillColor=none;align=left;verticalAlign=top;spacingLeft=4;spacingRight=4;overflow=hidden;rotatable=0;points=[[0,0.5],[1,0.5]];portConstraint=eastwest;whiteSpace=wrap;html=1;" parent="iTh-7qj9WM5Aq7R-gZvA-12" vertex="1">
          <mxGeometry y="26" width="606" height="134" as="geometry" />
        </mxCell>
        <mxCell id="iTh-7qj9WM5Aq7R-gZvA-14" value="" style="line;strokeWidth=1;fillColor=none;align=left;verticalAlign=middle;spacingTop=-1;spacingLeft=3;spacingRight=3;rotatable=0;labelPosition=right;points=[];portConstraint=eastwest;strokeColor=inherit;" parent="iTh-7qj9WM5Aq7R-gZvA-12" vertex="1">
          <mxGeometry y="160" width="606" height="8" as="geometry" />
        </mxCell>
        <mxCell id="iTh-7qj9WM5Aq7R-gZvA-15" value="+ method(type): type" style="text;strokeColor=none;fillColor=none;align=left;verticalAlign=top;spacingLeft=4;spacingRight=4;overflow=hidden;rotatable=0;points=[[0,0.5],[1,0.5]];portConstraint=eastwest;whiteSpace=wrap;html=1;" parent="iTh-7qj9WM5Aq7R-gZvA-12" vertex="1">
          <mxGeometry y="168" width="606" height="150" as="geometry" />
        </mxCell>
        <mxCell id="iTh-7qj9WM5Aq7R-gZvA-16" value="Filiale" style="swimlane;fontStyle=1;align=center;verticalAlign=top;childLayout=stackLayout;horizontal=1;startSize=26;horizontalStack=0;resizeParent=1;resizeParentMax=0;resizeLast=0;collapsible=1;marginBottom=0;whiteSpace=wrap;html=1;" parent="WIyWlLk6GJQsqaUBKTNV-1" vertex="1">
          <mxGeometry x="410" y="1680" width="610" height="250" as="geometry" />
        </mxCell>
        <mxCell id="iTh-7qj9WM5Aq7R-gZvA-17" value="+Name : string;&lt;br&gt;+Adress : string;&lt;br&gt;+ BIC : string;&lt;br&gt;+ Employees : List&amp;lt;Mitarbeiter&amp;gt;&lt;br&gt;+ Customers : List&amp;lt;Kunde&amp;gt;&lt;br&gt;+ AccManagementFee : double;&lt;br&gt;+random : Random" style="text;strokeColor=none;fillColor=none;align=left;verticalAlign=top;spacingLeft=4;spacingRight=4;overflow=hidden;rotatable=0;points=[[0,0.5],[1,0.5]];portConstraint=eastwest;whiteSpace=wrap;html=1;" parent="iTh-7qj9WM5Aq7R-gZvA-16" vertex="1">
          <mxGeometry y="26" width="610" height="114" as="geometry" />
        </mxCell>
        <mxCell id="iTh-7qj9WM5Aq7R-gZvA-18" value="" style="line;strokeWidth=1;fillColor=none;align=left;verticalAlign=middle;spacingTop=-1;spacingLeft=3;spacingRight=3;rotatable=0;labelPosition=right;points=[];portConstraint=eastwest;strokeColor=inherit;" parent="iTh-7qj9WM5Aq7R-gZvA-16" vertex="1">
          <mxGeometry y="140" width="610" height="8" as="geometry" />
        </mxCell>
        <mxCell id="iTh-7qj9WM5Aq7R-gZvA-19" value="+ Filiale(name : string; adress : string)&lt;br&gt;+ AddCustomers(Person : person) : void&lt;br&gt;+AddEmployee(Person : person) : void&lt;br&gt;+Transfer (Kunde : Sender, String : from_IBAN, Reciever : Kunde, String : to_IBAN, double: amount) : boolean&lt;br&gt;+ getAccManagementFee ( double : amount) : void&lt;br&gt;+ GenerateIBAN () : string&lt;br&gt;&lt;br&gt;&amp;nbsp;" style="text;strokeColor=none;fillColor=none;align=left;verticalAlign=top;spacingLeft=4;spacingRight=4;overflow=hidden;rotatable=0;points=[[0,0.5],[1,0.5]];portConstraint=eastwest;whiteSpace=wrap;html=1;" parent="iTh-7qj9WM5Aq7R-gZvA-16" vertex="1">
          <mxGeometry y="148" width="610" height="102" as="geometry" />
        </mxCell>
        <mxCell id="S92gwcKMPzxe8EV9-b40-4" value="Mitarbeiter" style="swimlane;fontStyle=1;align=center;verticalAlign=top;childLayout=stackLayout;horizontal=1;startSize=26;horizontalStack=0;resizeParent=1;resizeParentMax=0;resizeLast=0;collapsible=1;marginBottom=0;whiteSpace=wrap;html=1;" vertex="1" parent="WIyWlLk6GJQsqaUBKTNV-1">
          <mxGeometry x="-720" y="34" width="320" height="190" as="geometry" />
        </mxCell>
        <mxCell id="S92gwcKMPzxe8EV9-b40-5" value="+ Bank : Filiale" style="text;strokeColor=none;fillColor=none;align=left;verticalAlign=top;spacingLeft=4;spacingRight=4;overflow=hidden;rotatable=0;points=[[0,0.5],[1,0.5]];portConstraint=eastwest;whiteSpace=wrap;html=1;" vertex="1" parent="S92gwcKMPzxe8EV9-b40-4">
          <mxGeometry y="26" width="320" height="26" as="geometry" />
        </mxCell>
        <mxCell id="S92gwcKMPzxe8EV9-b40-9" value="+ ID : integer" style="text;strokeColor=none;fillColor=none;align=left;verticalAlign=top;spacingLeft=4;spacingRight=4;overflow=hidden;rotatable=0;points=[[0,0.5],[1,0.5]];portConstraint=eastwest;whiteSpace=wrap;html=1;" vertex="1" parent="S92gwcKMPzxe8EV9-b40-4">
          <mxGeometry y="52" width="320" height="26" as="geometry" />
        </mxCell>
        <mxCell id="S92gwcKMPzxe8EV9-b40-10" value="+ Applicants : List&amp;lt;Kunde&amp;gt;" style="text;strokeColor=none;fillColor=none;align=left;verticalAlign=top;spacingLeft=4;spacingRight=4;overflow=hidden;rotatable=0;points=[[0,0.5],[1,0.5]];portConstraint=eastwest;whiteSpace=wrap;html=1;" vertex="1" parent="S92gwcKMPzxe8EV9-b40-4">
          <mxGeometry y="78" width="320" height="26" as="geometry" />
        </mxCell>
        <mxCell id="S92gwcKMPzxe8EV9-b40-6" value="" style="line;strokeWidth=1;fillColor=none;align=left;verticalAlign=middle;spacingTop=-1;spacingLeft=3;spacingRight=3;rotatable=0;labelPosition=right;points=[];portConstraint=eastwest;strokeColor=inherit;" vertex="1" parent="S92gwcKMPzxe8EV9-b40-4">
          <mxGeometry y="104" width="320" height="8" as="geometry" />
        </mxCell>
        <mxCell id="S92gwcKMPzxe8EV9-b40-7" value="+ Mitarbeiter(fName : string, lName : string, Age : integer)" style="text;strokeColor=none;fillColor=none;align=left;verticalAlign=top;spacingLeft=4;spacingRight=4;overflow=hidden;rotatable=0;points=[[0,0.5],[1,0.5]];portConstraint=eastwest;whiteSpace=wrap;html=1;" vertex="1" parent="S92gwcKMPzxe8EV9-b40-4">
          <mxGeometry y="112" width="320" height="26" as="geometry" />
        </mxCell>
        <mxCell id="S92gwcKMPzxe8EV9-b40-14" value="+ OpenAccount(Applicant : Kunde) : Boolean" style="text;strokeColor=none;fillColor=none;align=left;verticalAlign=top;spacingLeft=4;spacingRight=4;overflow=hidden;rotatable=0;points=[[0,0.5],[1,0.5]];portConstraint=eastwest;whiteSpace=wrap;html=1;" vertex="1" parent="S92gwcKMPzxe8EV9-b40-4">
          <mxGeometry y="138" width="320" height="26" as="geometry" />
        </mxCell>
        <mxCell id="S92gwcKMPzxe8EV9-b40-15" value="+ CloseAccount(Account : Konto) : Boolean" style="text;strokeColor=none;fillColor=none;align=left;verticalAlign=top;spacingLeft=4;spacingRight=4;overflow=hidden;rotatable=0;points=[[0,0.5],[1,0.5]];portConstraint=eastwest;whiteSpace=wrap;html=1;" vertex="1" parent="S92gwcKMPzxe8EV9-b40-4">
          <mxGeometry y="164" width="320" height="26" as="geometry" />
        </mxCell>
        <mxCell id="S92gwcKMPzxe8EV9-b40-18" value="Person" style="swimlane;fontStyle=1;align=center;verticalAlign=top;childLayout=stackLayout;horizontal=1;startSize=26;horizontalStack=0;resizeParent=1;resizeParentMax=0;resizeLast=0;collapsible=1;marginBottom=0;whiteSpace=wrap;html=1;" vertex="1" parent="WIyWlLk6GJQsqaUBKTNV-1">
          <mxGeometry x="-720" y="240" width="320" height="164" as="geometry" />
        </mxCell>
        <mxCell id="S92gwcKMPzxe8EV9-b40-19" value="+ FirstName : String" style="text;strokeColor=none;fillColor=none;align=left;verticalAlign=top;spacingLeft=4;spacingRight=4;overflow=hidden;rotatable=0;points=[[0,0.5],[1,0.5]];portConstraint=eastwest;whiteSpace=wrap;html=1;" vertex="1" parent="S92gwcKMPzxe8EV9-b40-18">
          <mxGeometry y="26" width="320" height="26" as="geometry" />
        </mxCell>
        <mxCell id="S92gwcKMPzxe8EV9-b40-22" value="+ LastName : String" style="text;strokeColor=none;fillColor=none;align=left;verticalAlign=top;spacingLeft=4;spacingRight=4;overflow=hidden;rotatable=0;points=[[0,0.5],[1,0.5]];portConstraint=eastwest;whiteSpace=wrap;html=1;" vertex="1" parent="S92gwcKMPzxe8EV9-b40-18">
          <mxGeometry y="52" width="320" height="26" as="geometry" />
        </mxCell>
        <mxCell id="S92gwcKMPzxe8EV9-b40-23" value="+ Age : integer" style="text;strokeColor=none;fillColor=none;align=left;verticalAlign=top;spacingLeft=4;spacingRight=4;overflow=hidden;rotatable=0;points=[[0,0.5],[1,0.5]];portConstraint=eastwest;whiteSpace=wrap;html=1;" vertex="1" parent="S92gwcKMPzxe8EV9-b40-18">
          <mxGeometry y="78" width="320" height="26" as="geometry" />
        </mxCell>
        <mxCell id="S92gwcKMPzxe8EV9-b40-24" value="+ Adress : String" style="text;strokeColor=none;fillColor=none;align=left;verticalAlign=top;spacingLeft=4;spacingRight=4;overflow=hidden;rotatable=0;points=[[0,0.5],[1,0.5]];portConstraint=eastwest;whiteSpace=wrap;html=1;" vertex="1" parent="S92gwcKMPzxe8EV9-b40-18">
          <mxGeometry y="104" width="320" height="26" as="geometry" />
        </mxCell>
        <mxCell id="S92gwcKMPzxe8EV9-b40-20" value="" style="line;strokeWidth=1;fillColor=none;align=left;verticalAlign=middle;spacingTop=-1;spacingLeft=3;spacingRight=3;rotatable=0;labelPosition=right;points=[];portConstraint=eastwest;strokeColor=inherit;" vertex="1" parent="S92gwcKMPzxe8EV9-b40-18">
          <mxGeometry y="130" width="320" height="8" as="geometry" />
        </mxCell>
        <mxCell id="S92gwcKMPzxe8EV9-b40-21" value="+ Person(fName : String, lName : String, Age : integer)" style="text;strokeColor=none;fillColor=none;align=left;verticalAlign=top;spacingLeft=4;spacingRight=4;overflow=hidden;rotatable=0;points=[[0,0.5],[1,0.5]];portConstraint=eastwest;whiteSpace=wrap;html=1;" vertex="1" parent="S92gwcKMPzxe8EV9-b40-18">
          <mxGeometry y="138" width="320" height="26" as="geometry" />
        </mxCell>
        <mxCell id="S92gwcKMPzxe8EV9-b40-25" value="Kunde" style="swimlane;fontStyle=1;align=center;verticalAlign=top;childLayout=stackLayout;horizontal=1;startSize=26;horizontalStack=0;resizeParent=1;resizeParentMax=0;resizeLast=0;collapsible=1;marginBottom=0;whiteSpace=wrap;html=1;" vertex="1" parent="WIyWlLk6GJQsqaUBKTNV-1">
          <mxGeometry x="-720" y="420" width="530" height="346" as="geometry" />
        </mxCell>
        <mxCell id="S92gwcKMPzxe8EV9-b40-26" value="+ Accounts : List&amp;lt;Konto&amp;gt;" style="text;strokeColor=none;fillColor=none;align=left;verticalAlign=top;spacingLeft=4;spacingRight=4;overflow=hidden;rotatable=0;points=[[0,0.5],[1,0.5]];portConstraint=eastwest;whiteSpace=wrap;html=1;" vertex="1" parent="S92gwcKMPzxe8EV9-b40-25">
          <mxGeometry y="26" width="530" height="26" as="geometry" />
        </mxCell>
        <mxCell id="S92gwcKMPzxe8EV9-b40-29" value="+ ID : integer" style="text;strokeColor=none;fillColor=none;align=left;verticalAlign=top;spacingLeft=4;spacingRight=4;overflow=hidden;rotatable=0;points=[[0,0.5],[1,0.5]];portConstraint=eastwest;whiteSpace=wrap;html=1;" vertex="1" parent="S92gwcKMPzxe8EV9-b40-25">
          <mxGeometry y="52" width="530" height="26" as="geometry" />
        </mxCell>
        <mxCell id="S92gwcKMPzxe8EV9-b40-30" value="+ maxAccounts : integer" style="text;strokeColor=none;fillColor=none;align=left;verticalAlign=top;spacingLeft=4;spacingRight=4;overflow=hidden;rotatable=0;points=[[0,0.5],[1,0.5]];portConstraint=eastwest;whiteSpace=wrap;html=1;" vertex="1" parent="S92gwcKMPzxe8EV9-b40-25">
          <mxGeometry y="78" width="530" height="26" as="geometry" />
        </mxCell>
        <mxCell id="S92gwcKMPzxe8EV9-b40-31" value="+ Bank : Filiale" style="text;strokeColor=none;fillColor=none;align=left;verticalAlign=top;spacingLeft=4;spacingRight=4;overflow=hidden;rotatable=0;points=[[0,0.5],[1,0.5]];portConstraint=eastwest;whiteSpace=wrap;html=1;" vertex="1" parent="S92gwcKMPzxe8EV9-b40-25">
          <mxGeometry y="104" width="530" height="26" as="geometry" />
        </mxCell>
        <mxCell id="S92gwcKMPzxe8EV9-b40-32" value="+ Consultant : Mitarbeiter" style="text;strokeColor=none;fillColor=none;align=left;verticalAlign=top;spacingLeft=4;spacingRight=4;overflow=hidden;rotatable=0;points=[[0,0.5],[1,0.5]];portConstraint=eastwest;whiteSpace=wrap;html=1;" vertex="1" parent="S92gwcKMPzxe8EV9-b40-25">
          <mxGeometry y="130" width="530" height="26" as="geometry" />
        </mxCell>
        <mxCell id="S92gwcKMPzxe8EV9-b40-27" value="" style="line;strokeWidth=1;fillColor=none;align=left;verticalAlign=middle;spacingTop=-1;spacingLeft=3;spacingRight=3;rotatable=0;labelPosition=right;points=[];portConstraint=eastwest;strokeColor=inherit;" vertex="1" parent="S92gwcKMPzxe8EV9-b40-25">
          <mxGeometry y="156" width="530" height="8" as="geometry" />
        </mxCell>
        <mxCell id="S92gwcKMPzxe8EV9-b40-28" value="+ Kunde(fName : String, lName : String, Age : integer)" style="text;strokeColor=none;fillColor=none;align=left;verticalAlign=top;spacingLeft=4;spacingRight=4;overflow=hidden;rotatable=0;points=[[0,0.5],[1,0.5]];portConstraint=eastwest;whiteSpace=wrap;html=1;" vertex="1" parent="S92gwcKMPzxe8EV9-b40-25">
          <mxGeometry y="164" width="530" height="26" as="geometry" />
        </mxCell>
        <mxCell id="S92gwcKMPzxe8EV9-b40-33" value="+ OpenAccount() : Boolean" style="text;strokeColor=none;fillColor=none;align=left;verticalAlign=top;spacingLeft=4;spacingRight=4;overflow=hidden;rotatable=0;points=[[0,0.5],[1,0.5]];portConstraint=eastwest;whiteSpace=wrap;html=1;" vertex="1" parent="S92gwcKMPzxe8EV9-b40-25">
          <mxGeometry y="190" width="530" height="26" as="geometry" />
        </mxCell>
        <mxCell id="S92gwcKMPzxe8EV9-b40-34" value="+ CloseAccount() : Boolean" style="text;strokeColor=none;fillColor=none;align=left;verticalAlign=top;spacingLeft=4;spacingRight=4;overflow=hidden;rotatable=0;points=[[0,0.5],[1,0.5]];portConstraint=eastwest;whiteSpace=wrap;html=1;" vertex="1" parent="S92gwcKMPzxe8EV9-b40-25">
          <mxGeometry y="216" width="530" height="26" as="geometry" />
        </mxCell>
        <mxCell id="S92gwcKMPzxe8EV9-b40-35" value="+ getBalance(IBAN : String) : double" style="text;strokeColor=none;fillColor=none;align=left;verticalAlign=top;spacingLeft=4;spacingRight=4;overflow=hidden;rotatable=0;points=[[0,0.5],[1,0.5]];portConstraint=eastwest;whiteSpace=wrap;html=1;" vertex="1" parent="S92gwcKMPzxe8EV9-b40-25">
          <mxGeometry y="242" width="530" height="26" as="geometry" />
        </mxCell>
        <mxCell id="S92gwcKMPzxe8EV9-b40-36" value="+ Deposit(IBAN : String, amount : double) : Boolean" style="text;strokeColor=none;fillColor=none;align=left;verticalAlign=top;spacingLeft=4;spacingRight=4;overflow=hidden;rotatable=0;points=[[0,0.5],[1,0.5]];portConstraint=eastwest;whiteSpace=wrap;html=1;" vertex="1" parent="S92gwcKMPzxe8EV9-b40-25">
          <mxGeometry y="268" width="530" height="26" as="geometry" />
        </mxCell>
        <mxCell id="S92gwcKMPzxe8EV9-b40-37" value="+ Withdraw(IBAN : String, amount : double) : Boolean" style="text;strokeColor=none;fillColor=none;align=left;verticalAlign=top;spacingLeft=4;spacingRight=4;overflow=hidden;rotatable=0;points=[[0,0.5],[1,0.5]];portConstraint=eastwest;whiteSpace=wrap;html=1;" vertex="1" parent="S92gwcKMPzxe8EV9-b40-25">
          <mxGeometry y="294" width="530" height="26" as="geometry" />
        </mxCell>
        <mxCell id="S92gwcKMPzxe8EV9-b40-38" value="+ Transfer(from_IBAN : String, Reciever : Kunde, to_IBAN : String, amount : double) : Boolean" style="text;strokeColor=none;fillColor=none;align=left;verticalAlign=top;spacingLeft=4;spacingRight=4;overflow=hidden;rotatable=0;points=[[0,0.5],[1,0.5]];portConstraint=eastwest;whiteSpace=wrap;html=1;" vertex="1" parent="S92gwcKMPzxe8EV9-b40-25">
          <mxGeometry y="320" width="530" height="26" as="geometry" />
        </mxCell>
        <mxCell id="S92gwcKMPzxe8EV9-b40-40" value="Filiale" style="swimlane;fontStyle=1;align=center;verticalAlign=top;childLayout=stackLayout;horizontal=1;startSize=26;horizontalStack=0;resizeParent=1;resizeParentMax=0;resizeLast=0;collapsible=1;marginBottom=0;whiteSpace=wrap;html=1;" vertex="1" parent="WIyWlLk6GJQsqaUBKTNV-1">
          <mxGeometry x="-720" y="780" width="530" height="242" as="geometry" />
        </mxCell>
        <mxCell id="S92gwcKMPzxe8EV9-b40-41" value="+ Name : String" style="text;strokeColor=none;fillColor=none;align=left;verticalAlign=top;spacingLeft=4;spacingRight=4;overflow=hidden;rotatable=0;points=[[0,0.5],[1,0.5]];portConstraint=eastwest;whiteSpace=wrap;html=1;" vertex="1" parent="S92gwcKMPzxe8EV9-b40-40">
          <mxGeometry y="26" width="530" height="26" as="geometry" />
        </mxCell>
        <mxCell id="S92gwcKMPzxe8EV9-b40-44" value="+ Adress : String" style="text;strokeColor=none;fillColor=none;align=left;verticalAlign=top;spacingLeft=4;spacingRight=4;overflow=hidden;rotatable=0;points=[[0,0.5],[1,0.5]];portConstraint=eastwest;whiteSpace=wrap;html=1;" vertex="1" parent="S92gwcKMPzxe8EV9-b40-40">
          <mxGeometry y="52" width="530" height="26" as="geometry" />
        </mxCell>
        <mxCell id="S92gwcKMPzxe8EV9-b40-45" value="+ BIC : String" style="text;strokeColor=none;fillColor=none;align=left;verticalAlign=top;spacingLeft=4;spacingRight=4;overflow=hidden;rotatable=0;points=[[0,0.5],[1,0.5]];portConstraint=eastwest;whiteSpace=wrap;html=1;" vertex="1" parent="S92gwcKMPzxe8EV9-b40-40">
          <mxGeometry y="78" width="530" height="26" as="geometry" />
        </mxCell>
        <mxCell id="S92gwcKMPzxe8EV9-b40-46" value="+ Employees : List&amp;lt;Mitarbeiter&amp;gt;" style="text;strokeColor=none;fillColor=none;align=left;verticalAlign=top;spacingLeft=4;spacingRight=4;overflow=hidden;rotatable=0;points=[[0,0.5],[1,0.5]];portConstraint=eastwest;whiteSpace=wrap;html=1;" vertex="1" parent="S92gwcKMPzxe8EV9-b40-40">
          <mxGeometry y="104" width="530" height="26" as="geometry" />
        </mxCell>
        <mxCell id="S92gwcKMPzxe8EV9-b40-47" value="+ Customers : List&amp;lt;Kunde&amp;gt;" style="text;strokeColor=none;fillColor=none;align=left;verticalAlign=top;spacingLeft=4;spacingRight=4;overflow=hidden;rotatable=0;points=[[0,0.5],[1,0.5]];portConstraint=eastwest;whiteSpace=wrap;html=1;" vertex="1" parent="S92gwcKMPzxe8EV9-b40-40">
          <mxGeometry y="130" width="530" height="26" as="geometry" />
        </mxCell>
        <mxCell id="S92gwcKMPzxe8EV9-b40-48" value="- AccManagementFee : double" style="text;strokeColor=none;fillColor=none;align=left;verticalAlign=top;spacingLeft=4;spacingRight=4;overflow=hidden;rotatable=0;points=[[0,0.5],[1,0.5]];portConstraint=eastwest;whiteSpace=wrap;html=1;" vertex="1" parent="S92gwcKMPzxe8EV9-b40-40">
          <mxGeometry y="156" width="530" height="26" as="geometry" />
        </mxCell>
        <mxCell id="S92gwcKMPzxe8EV9-b40-49" value="- random : Random" style="text;strokeColor=none;fillColor=none;align=left;verticalAlign=top;spacingLeft=4;spacingRight=4;overflow=hidden;rotatable=0;points=[[0,0.5],[1,0.5]];portConstraint=eastwest;whiteSpace=wrap;html=1;" vertex="1" parent="S92gwcKMPzxe8EV9-b40-40">
          <mxGeometry y="182" width="530" height="26" as="geometry" />
        </mxCell>
        <mxCell id="S92gwcKMPzxe8EV9-b40-42" value="" style="line;strokeWidth=1;fillColor=none;align=left;verticalAlign=middle;spacingTop=-1;spacingLeft=3;spacingRight=3;rotatable=0;labelPosition=right;points=[];portConstraint=eastwest;strokeColor=inherit;" vertex="1" parent="S92gwcKMPzxe8EV9-b40-40">
          <mxGeometry y="208" width="530" height="8" as="geometry" />
        </mxCell>
        <mxCell id="S92gwcKMPzxe8EV9-b40-43" value="+ method(type): type" style="text;strokeColor=none;fillColor=none;align=left;verticalAlign=top;spacingLeft=4;spacingRight=4;overflow=hidden;rotatable=0;points=[[0,0.5],[1,0.5]];portConstraint=eastwest;whiteSpace=wrap;html=1;" vertex="1" parent="S92gwcKMPzxe8EV9-b40-40">
          <mxGeometry y="216" width="530" height="26" as="geometry" />
        </mxCell>
      </root>
    </mxGraphModel>
  </diagram>
</mxfile>
